# xmcd CD database file
#
# Track frame offsets:
#	200
#	7680
#	20822
#	37257
#	58102
#	78695
#	94522
#	115817
#	134690
#	157895
#	179957
#	200012
#	224855
#	242572
#	269685
#	291602
#
# Disc length: 4131 seconds
#
# Revision: 2
# Processed by: cddbd v1.5.1PL0 Copyright (c) Steve Scherf et al.
# Submitted via: CDex 1.51
#
DISCID=02102110
DTITLE=Exchange - Beyond Words
DYEAR=1993
DGENRE=New Age
TTITLE0=A State Of Grace
TTITLE1=In A Changing World
TTITLE2=Into The Night
TTITLE3=Beyond Reach
TTITLE4=In This Place
TTITLE5=Sir Bryant
TTITLE6=The Last Romance
TTITLE7=Islands
TTITLE8=Meridian
TTITLE9=Norway
TTITLE10=Compass Rose
TTITLE11=No Borders (1993)
TTITLE12=Golden Point
TTITLE13=The Waiting Room
TTITLE14=Between Places
TTITLE15=Stonewalk
EXTD=YEAR: 1993
EXTT0=
EXTT1=
EXTT2=
EXTT3=
EXTT4=
EXTT5=
EXTT6=
EXTT7=
EXTT8=CD Bonus Track\n
EXTT9=
EXTT10=
EXTT11=
EXTT12=
EXTT13=
EXTT14=
EXTT15=CD Bonus Track\n
PLAYORDER=
